<mxfile host="app.diagrams.net" modified="2024-04-27T18:43:22.501Z" agent="Mozilla/5.0 (X11; Linux x86_64; rv:125.0) Gecko/20100101 Firefox/125.0" etag="5zq8hfoE51QvdVuvaYap" version="24.2.7" type="device">
  <diagram name="Page-1" id="_kvGbDmNny11qAFhc755">
    <mxGraphModel dx="2688" dy="1182" grid="1" gridSize="10" guides="1" tooltips="1" connect="1" arrows="1" fold="1" page="1" pageScale="1" pageWidth="827" pageHeight="1169" math="0" shadow="0">
      <root>
        <mxCell id="0" />
        <mxCell id="1" parent="0" />
        <mxCell id="pb-NdofNZY1ENQIVfTuN-45" style="edgeStyle=orthogonalEdgeStyle;rounded=0;orthogonalLoop=1;jettySize=auto;html=1;" edge="1" parent="1" source="pb-NdofNZY1ENQIVfTuN-1" target="pb-NdofNZY1ENQIVfTuN-3">
          <mxGeometry relative="1" as="geometry" />
        </mxCell>
        <mxCell id="pb-NdofNZY1ENQIVfTuN-1" value="inputLayer&lt;br&gt;&lt;b&gt;input_layer&lt;/b&gt;" style="swimlane;fontStyle=0;align=center;verticalAlign=top;childLayout=stackLayout;horizontal=1;startSize=40;horizontalStack=0;resizeParent=1;resizeParentMax=0;resizeLast=0;collapsible=0;marginBottom=0;html=1;whiteSpace=wrap;" vertex="1" parent="1">
          <mxGeometry x="40" y="115" width="200" height="70" as="geometry" />
        </mxCell>
        <mxCell id="pb-NdofNZY1ENQIVfTuN-2" value="Output shape: &lt;b&gt;(None, 320, 240, 1)&lt;/b&gt;" style="text;html=1;strokeColor=none;fillColor=none;align=center;verticalAlign=middle;spacingLeft=4;spacingRight=4;overflow=hidden;rotatable=0;points=[[0,0.5],[1,0.5]];portConstraint=eastwest;whiteSpace=wrap;" vertex="1" parent="pb-NdofNZY1ENQIVfTuN-1">
          <mxGeometry y="40" width="200" height="30" as="geometry" />
        </mxCell>
        <mxCell id="pb-NdofNZY1ENQIVfTuN-3" value="Conv2D&lt;br&gt;&lt;b&gt;conv2d&lt;/b&gt;" style="swimlane;fontStyle=0;align=center;verticalAlign=top;childLayout=stackLayout;horizontal=1;startSize=40;horizontalStack=0;resizeParent=1;resizeParentMax=0;resizeLast=0;collapsible=0;marginBottom=0;html=1;whiteSpace=wrap;" vertex="1" parent="1">
          <mxGeometry x="280" y="100" width="230" height="100" as="geometry" />
        </mxCell>
        <mxCell id="pb-NdofNZY1ENQIVfTuN-5" value="Activation: &lt;b&gt;relu&lt;/b&gt;" style="text;html=1;strokeColor=none;fillColor=none;align=center;verticalAlign=middle;spacingLeft=4;spacingRight=4;overflow=hidden;rotatable=0;points=[[0,0.5],[1,0.5]];portConstraint=eastwest;whiteSpace=wrap;" vertex="1" parent="pb-NdofNZY1ENQIVfTuN-3">
          <mxGeometry y="40" width="230" height="30" as="geometry" />
        </mxCell>
        <mxCell id="pb-NdofNZY1ENQIVfTuN-4" value="Output shape: &lt;b&gt;(None, 316, 236, 512)&lt;/b&gt;" style="text;html=1;strokeColor=default;fillColor=none;align=center;verticalAlign=middle;spacingLeft=4;spacingRight=4;overflow=hidden;rotatable=0;points=[[0,0.5],[1,0.5]];portConstraint=eastwest;whiteSpace=wrap;" vertex="1" parent="pb-NdofNZY1ENQIVfTuN-3">
          <mxGeometry y="70" width="230" height="30" as="geometry" />
        </mxCell>
        <mxCell id="pb-NdofNZY1ENQIVfTuN-54" style="edgeStyle=orthogonalEdgeStyle;rounded=0;orthogonalLoop=1;jettySize=auto;html=1;" edge="1" parent="1" source="pb-NdofNZY1ENQIVfTuN-6" target="pb-NdofNZY1ENQIVfTuN-9">
          <mxGeometry relative="1" as="geometry">
            <Array as="points">
              <mxPoint x="655" y="220" />
              <mxPoint x="395" y="220" />
            </Array>
          </mxGeometry>
        </mxCell>
        <mxCell id="pb-NdofNZY1ENQIVfTuN-6" value="&lt;div&gt;MaxPooling2D&lt;br&gt;&lt;b&gt;max_pooling2d&lt;/b&gt;&lt;br&gt;&lt;/div&gt;&lt;b&gt;&lt;/b&gt;" style="swimlane;fontStyle=0;align=center;verticalAlign=top;childLayout=stackLayout;horizontal=1;startSize=40;horizontalStack=0;resizeParent=1;resizeParentMax=0;resizeLast=0;collapsible=0;marginBottom=0;html=1;whiteSpace=wrap;" vertex="1" parent="1">
          <mxGeometry x="540" y="120" width="230" height="70" as="geometry" />
        </mxCell>
        <mxCell id="pb-NdofNZY1ENQIVfTuN-8" value="Output shape: &lt;b&gt;(None, 158, 118, 512)&lt;/b&gt;" style="text;html=1;strokeColor=none;fillColor=none;align=center;verticalAlign=middle;spacingLeft=4;spacingRight=4;overflow=hidden;rotatable=0;points=[[0,0.5],[1,0.5]];portConstraint=eastwest;whiteSpace=wrap;" vertex="1" parent="pb-NdofNZY1ENQIVfTuN-6">
          <mxGeometry y="40" width="230" height="30" as="geometry" />
        </mxCell>
        <mxCell id="pb-NdofNZY1ENQIVfTuN-48" style="edgeStyle=orthogonalEdgeStyle;rounded=0;orthogonalLoop=1;jettySize=auto;html=1;" edge="1" parent="1" source="pb-NdofNZY1ENQIVfTuN-9" target="pb-NdofNZY1ENQIVfTuN-12">
          <mxGeometry relative="1" as="geometry" />
        </mxCell>
        <mxCell id="pb-NdofNZY1ENQIVfTuN-9" value="Conv2D&lt;br&gt;&lt;b&gt;conv2d_1&lt;/b&gt;" style="swimlane;fontStyle=0;align=center;verticalAlign=top;childLayout=stackLayout;horizontal=1;startSize=40;horizontalStack=0;resizeParent=1;resizeParentMax=0;resizeLast=0;collapsible=0;marginBottom=0;html=1;whiteSpace=wrap;" vertex="1" parent="1">
          <mxGeometry x="280" y="240" width="230" height="100" as="geometry" />
        </mxCell>
        <mxCell id="pb-NdofNZY1ENQIVfTuN-10" value="Activation: &lt;b&gt;relu&lt;/b&gt;" style="text;html=1;strokeColor=none;fillColor=none;align=center;verticalAlign=middle;spacingLeft=4;spacingRight=4;overflow=hidden;rotatable=0;points=[[0,0.5],[1,0.5]];portConstraint=eastwest;whiteSpace=wrap;" vertex="1" parent="pb-NdofNZY1ENQIVfTuN-9">
          <mxGeometry y="40" width="230" height="30" as="geometry" />
        </mxCell>
        <mxCell id="pb-NdofNZY1ENQIVfTuN-11" value="Output shape: &lt;b&gt;(None, 154, 114, 256)&lt;/b&gt;" style="text;html=1;strokeColor=default;fillColor=none;align=center;verticalAlign=middle;spacingLeft=4;spacingRight=4;overflow=hidden;rotatable=0;points=[[0,0.5],[1,0.5]];portConstraint=eastwest;whiteSpace=wrap;" vertex="1" parent="pb-NdofNZY1ENQIVfTuN-9">
          <mxGeometry y="70" width="230" height="30" as="geometry" />
        </mxCell>
        <mxCell id="pb-NdofNZY1ENQIVfTuN-53" style="edgeStyle=orthogonalEdgeStyle;rounded=0;orthogonalLoop=1;jettySize=auto;html=1;" edge="1" parent="1" source="pb-NdofNZY1ENQIVfTuN-12" target="pb-NdofNZY1ENQIVfTuN-14">
          <mxGeometry relative="1" as="geometry">
            <Array as="points">
              <mxPoint x="655" y="360" />
              <mxPoint x="395" y="360" />
            </Array>
          </mxGeometry>
        </mxCell>
        <mxCell id="pb-NdofNZY1ENQIVfTuN-12" value="&lt;div&gt;MaxPooling2D&lt;br&gt;&lt;b&gt;max_pooling2d_1&lt;/b&gt;&lt;br&gt;&lt;/div&gt;&lt;b&gt;&lt;/b&gt;" style="swimlane;fontStyle=0;align=center;verticalAlign=top;childLayout=stackLayout;horizontal=1;startSize=40;horizontalStack=0;resizeParent=1;resizeParentMax=0;resizeLast=0;collapsible=0;marginBottom=0;html=1;whiteSpace=wrap;" vertex="1" parent="1">
          <mxGeometry x="540" y="255" width="230" height="70" as="geometry" />
        </mxCell>
        <mxCell id="pb-NdofNZY1ENQIVfTuN-13" value="Output shape: &lt;b&gt;(None, 77, 57, 256)&lt;/b&gt;" style="text;html=1;strokeColor=none;fillColor=none;align=center;verticalAlign=middle;spacingLeft=4;spacingRight=4;overflow=hidden;rotatable=0;points=[[0,0.5],[1,0.5]];portConstraint=eastwest;whiteSpace=wrap;" vertex="1" parent="pb-NdofNZY1ENQIVfTuN-12">
          <mxGeometry y="40" width="230" height="30" as="geometry" />
        </mxCell>
        <mxCell id="pb-NdofNZY1ENQIVfTuN-14" value="Conv2D&lt;br&gt;&lt;b&gt;conv2d_2&lt;/b&gt;" style="swimlane;fontStyle=0;align=center;verticalAlign=top;childLayout=stackLayout;horizontal=1;startSize=40;horizontalStack=0;resizeParent=1;resizeParentMax=0;resizeLast=0;collapsible=0;marginBottom=0;html=1;whiteSpace=wrap;" vertex="1" parent="1">
          <mxGeometry x="280" y="380" width="230" height="100" as="geometry" />
        </mxCell>
        <mxCell id="pb-NdofNZY1ENQIVfTuN-15" value="Activation: &lt;b&gt;relu&lt;/b&gt;" style="text;html=1;strokeColor=none;fillColor=none;align=center;verticalAlign=middle;spacingLeft=4;spacingRight=4;overflow=hidden;rotatable=0;points=[[0,0.5],[1,0.5]];portConstraint=eastwest;whiteSpace=wrap;" vertex="1" parent="pb-NdofNZY1ENQIVfTuN-14">
          <mxGeometry y="40" width="230" height="30" as="geometry" />
        </mxCell>
        <mxCell id="pb-NdofNZY1ENQIVfTuN-16" value="Output shape: &lt;b&gt;(None, 73, 53, 128)&lt;/b&gt;" style="text;html=1;strokeColor=default;fillColor=none;align=center;verticalAlign=middle;spacingLeft=4;spacingRight=4;overflow=hidden;rotatable=0;points=[[0,0.5],[1,0.5]];portConstraint=eastwest;whiteSpace=wrap;" vertex="1" parent="pb-NdofNZY1ENQIVfTuN-14">
          <mxGeometry y="70" width="230" height="30" as="geometry" />
        </mxCell>
        <mxCell id="pb-NdofNZY1ENQIVfTuN-56" style="edgeStyle=orthogonalEdgeStyle;rounded=0;orthogonalLoop=1;jettySize=auto;html=1;" edge="1" parent="1" source="pb-NdofNZY1ENQIVfTuN-17" target="pb-NdofNZY1ENQIVfTuN-19">
          <mxGeometry relative="1" as="geometry">
            <Array as="points">
              <mxPoint x="655" y="500" />
              <mxPoint x="395" y="500" />
            </Array>
          </mxGeometry>
        </mxCell>
        <mxCell id="pb-NdofNZY1ENQIVfTuN-17" value="&lt;div&gt;MaxPooling2D&lt;br&gt;&lt;b&gt;max_pooling2d_2&lt;/b&gt;&lt;br&gt;&lt;/div&gt;&lt;b&gt;&lt;/b&gt;" style="swimlane;fontStyle=0;align=center;verticalAlign=top;childLayout=stackLayout;horizontal=1;startSize=40;horizontalStack=0;resizeParent=1;resizeParentMax=0;resizeLast=0;collapsible=0;marginBottom=0;html=1;whiteSpace=wrap;" vertex="1" parent="1">
          <mxGeometry x="540" y="400" width="230" height="70" as="geometry" />
        </mxCell>
        <mxCell id="pb-NdofNZY1ENQIVfTuN-18" value="Output shape: &lt;b&gt;(None, 36, 26, 128)&lt;/b&gt;" style="text;html=1;strokeColor=none;fillColor=none;align=center;verticalAlign=middle;spacingLeft=4;spacingRight=4;overflow=hidden;rotatable=0;points=[[0,0.5],[1,0.5]];portConstraint=eastwest;whiteSpace=wrap;" vertex="1" parent="pb-NdofNZY1ENQIVfTuN-17">
          <mxGeometry y="40" width="230" height="30" as="geometry" />
        </mxCell>
        <mxCell id="pb-NdofNZY1ENQIVfTuN-52" style="edgeStyle=orthogonalEdgeStyle;rounded=0;orthogonalLoop=1;jettySize=auto;html=1;" edge="1" parent="1" source="pb-NdofNZY1ENQIVfTuN-19" target="pb-NdofNZY1ENQIVfTuN-22">
          <mxGeometry relative="1" as="geometry" />
        </mxCell>
        <mxCell id="pb-NdofNZY1ENQIVfTuN-19" value="Conv2D&lt;br&gt;&lt;b&gt;conv2d_3&lt;/b&gt;" style="swimlane;fontStyle=0;align=center;verticalAlign=top;childLayout=stackLayout;horizontal=1;startSize=40;horizontalStack=0;resizeParent=1;resizeParentMax=0;resizeLast=0;collapsible=0;marginBottom=0;html=1;whiteSpace=wrap;" vertex="1" parent="1">
          <mxGeometry x="280" y="520" width="230" height="100" as="geometry" />
        </mxCell>
        <mxCell id="pb-NdofNZY1ENQIVfTuN-20" value="Activation: &lt;b&gt;relu&lt;/b&gt;" style="text;html=1;strokeColor=none;fillColor=none;align=center;verticalAlign=middle;spacingLeft=4;spacingRight=4;overflow=hidden;rotatable=0;points=[[0,0.5],[1,0.5]];portConstraint=eastwest;whiteSpace=wrap;" vertex="1" parent="pb-NdofNZY1ENQIVfTuN-19">
          <mxGeometry y="40" width="230" height="30" as="geometry" />
        </mxCell>
        <mxCell id="pb-NdofNZY1ENQIVfTuN-21" value="Output shape: &lt;b&gt;(None, 34, 24, 64)&lt;/b&gt;" style="text;html=1;strokeColor=default;fillColor=none;align=center;verticalAlign=middle;spacingLeft=4;spacingRight=4;overflow=hidden;rotatable=0;points=[[0,0.5],[1,0.5]];portConstraint=eastwest;whiteSpace=wrap;" vertex="1" parent="pb-NdofNZY1ENQIVfTuN-19">
          <mxGeometry y="70" width="230" height="30" as="geometry" />
        </mxCell>
        <mxCell id="pb-NdofNZY1ENQIVfTuN-57" style="edgeStyle=orthogonalEdgeStyle;rounded=0;orthogonalLoop=1;jettySize=auto;html=1;" edge="1" parent="1" source="pb-NdofNZY1ENQIVfTuN-22" target="pb-NdofNZY1ENQIVfTuN-24">
          <mxGeometry relative="1" as="geometry" />
        </mxCell>
        <mxCell id="pb-NdofNZY1ENQIVfTuN-22" value="&lt;div&gt;MaxPooling2D&lt;br&gt;&lt;b&gt;max_pooling2d_3&lt;/b&gt;&lt;br&gt;&lt;/div&gt;&lt;b&gt;&lt;/b&gt;" style="swimlane;fontStyle=0;align=center;verticalAlign=top;childLayout=stackLayout;horizontal=1;startSize=40;horizontalStack=0;resizeParent=1;resizeParentMax=0;resizeLast=0;collapsible=0;marginBottom=0;html=1;whiteSpace=wrap;" vertex="1" parent="1">
          <mxGeometry x="540" y="535" width="230" height="70" as="geometry" />
        </mxCell>
        <mxCell id="pb-NdofNZY1ENQIVfTuN-23" value="Output shape: &lt;b&gt;(None, 17, 12, 64)&lt;/b&gt;" style="text;html=1;strokeColor=none;fillColor=none;align=center;verticalAlign=middle;spacingLeft=4;spacingRight=4;overflow=hidden;rotatable=0;points=[[0,0.5],[1,0.5]];portConstraint=eastwest;whiteSpace=wrap;" vertex="1" parent="pb-NdofNZY1ENQIVfTuN-22">
          <mxGeometry y="40" width="230" height="30" as="geometry" />
        </mxCell>
        <mxCell id="pb-NdofNZY1ENQIVfTuN-58" style="edgeStyle=orthogonalEdgeStyle;rounded=0;orthogonalLoop=1;jettySize=auto;html=1;" edge="1" parent="1" source="pb-NdofNZY1ENQIVfTuN-24" target="pb-NdofNZY1ENQIVfTuN-26">
          <mxGeometry relative="1" as="geometry" />
        </mxCell>
        <mxCell id="pb-NdofNZY1ENQIVfTuN-24" value="&lt;div&gt;Flatten&lt;br&gt;&lt;b&gt;flatten&lt;/b&gt;&lt;br&gt;&lt;/div&gt;&lt;b&gt;&lt;/b&gt;" style="swimlane;fontStyle=0;align=center;verticalAlign=top;childLayout=stackLayout;horizontal=1;startSize=40;horizontalStack=0;resizeParent=1;resizeParentMax=0;resizeLast=0;collapsible=0;marginBottom=0;html=1;whiteSpace=wrap;" vertex="1" parent="1">
          <mxGeometry x="810" y="535" width="230" height="70" as="geometry" />
        </mxCell>
        <mxCell id="pb-NdofNZY1ENQIVfTuN-25" value="Output shape: &lt;b&gt;(None, 13056)&lt;/b&gt;" style="text;html=1;strokeColor=none;fillColor=none;align=center;verticalAlign=middle;spacingLeft=4;spacingRight=4;overflow=hidden;rotatable=0;points=[[0,0.5],[1,0.5]];portConstraint=eastwest;whiteSpace=wrap;" vertex="1" parent="pb-NdofNZY1ENQIVfTuN-24">
          <mxGeometry y="40" width="230" height="30" as="geometry" />
        </mxCell>
        <mxCell id="pb-NdofNZY1ENQIVfTuN-59" style="edgeStyle=orthogonalEdgeStyle;rounded=0;orthogonalLoop=1;jettySize=auto;html=1;" edge="1" parent="1" source="pb-NdofNZY1ENQIVfTuN-26" target="pb-NdofNZY1ENQIVfTuN-29">
          <mxGeometry relative="1" as="geometry" />
        </mxCell>
        <mxCell id="pb-NdofNZY1ENQIVfTuN-26" value="Dense&lt;br&gt;&lt;b&gt;Dense&lt;/b&gt;" style="swimlane;fontStyle=0;align=center;verticalAlign=top;childLayout=stackLayout;horizontal=1;startSize=40;horizontalStack=0;resizeParent=1;resizeParentMax=0;resizeLast=0;collapsible=0;marginBottom=0;html=1;whiteSpace=wrap;" vertex="1" parent="1">
          <mxGeometry x="1090" y="520" width="230" height="100" as="geometry" />
        </mxCell>
        <mxCell id="pb-NdofNZY1ENQIVfTuN-27" value="Activation: &lt;b&gt;relu&lt;/b&gt;" style="text;html=1;strokeColor=none;fillColor=none;align=center;verticalAlign=middle;spacingLeft=4;spacingRight=4;overflow=hidden;rotatable=0;points=[[0,0.5],[1,0.5]];portConstraint=eastwest;whiteSpace=wrap;" vertex="1" parent="pb-NdofNZY1ENQIVfTuN-26">
          <mxGeometry y="40" width="230" height="30" as="geometry" />
        </mxCell>
        <mxCell id="pb-NdofNZY1ENQIVfTuN-28" value="Output shape: &lt;b&gt;(None, 128)&lt;/b&gt;" style="text;html=1;strokeColor=default;fillColor=none;align=center;verticalAlign=middle;spacingLeft=4;spacingRight=4;overflow=hidden;rotatable=0;points=[[0,0.5],[1,0.5]];portConstraint=eastwest;whiteSpace=wrap;" vertex="1" parent="pb-NdofNZY1ENQIVfTuN-26">
          <mxGeometry y="70" width="230" height="30" as="geometry" />
        </mxCell>
        <mxCell id="pb-NdofNZY1ENQIVfTuN-29" value="Outputs&lt;br&gt;&lt;b&gt;output&lt;/b&gt;" style="swimlane;fontStyle=0;align=center;verticalAlign=top;childLayout=stackLayout;horizontal=1;startSize=40;horizontalStack=0;resizeParent=1;resizeParentMax=0;resizeLast=0;collapsible=0;marginBottom=0;html=1;whiteSpace=wrap;strokeColor=default;" vertex="1" parent="1">
          <mxGeometry x="1370" y="200" width="230" height="430" as="geometry" />
        </mxCell>
        <mxCell id="pb-NdofNZY1ENQIVfTuN-30" value="Activation: &lt;b&gt;linear&lt;/b&gt;" style="text;html=1;strokeColor=none;fillColor=none;align=center;verticalAlign=middle;spacingLeft=4;spacingRight=4;overflow=hidden;rotatable=0;points=[[0,0.5],[1,0.5]];portConstraint=eastwest;whiteSpace=wrap;" vertex="1" parent="pb-NdofNZY1ENQIVfTuN-29">
          <mxGeometry y="40" width="230" height="30" as="geometry" />
        </mxCell>
        <mxCell id="pb-NdofNZY1ENQIVfTuN-31" value="Output shape: &lt;b&gt;(None, 1)&lt;/b&gt;" style="text;html=1;strokeColor=default;fillColor=none;align=center;verticalAlign=middle;spacingLeft=4;spacingRight=4;overflow=hidden;rotatable=0;points=[[0,0.5],[1,0.5]];portConstraint=eastwest;whiteSpace=wrap;" vertex="1" parent="pb-NdofNZY1ENQIVfTuN-29">
          <mxGeometry y="70" width="230" height="30" as="geometry" />
        </mxCell>
        <mxCell id="pb-NdofNZY1ENQIVfTuN-32" value="chest_out" style="text;html=1;strokeColor=none;fillColor=none;align=center;verticalAlign=middle;spacingLeft=4;spacingRight=4;overflow=hidden;rotatable=0;points=[[0,0.5],[1,0.5]];portConstraint=eastwest;whiteSpace=wrap;" vertex="1" parent="pb-NdofNZY1ENQIVfTuN-29">
          <mxGeometry y="100" width="230" height="30" as="geometry" />
        </mxCell>
        <mxCell id="pb-NdofNZY1ENQIVfTuN-35" value="&lt;div&gt;waist_out&lt;/div&gt;" style="text;html=1;strokeColor=none;fillColor=none;align=center;verticalAlign=middle;spacingLeft=4;spacingRight=4;overflow=hidden;rotatable=0;points=[[0,0.5],[1,0.5]];portConstraint=eastwest;whiteSpace=wrap;" vertex="1" parent="pb-NdofNZY1ENQIVfTuN-29">
          <mxGeometry y="130" width="230" height="30" as="geometry" />
        </mxCell>
        <mxCell id="pb-NdofNZY1ENQIVfTuN-43" value="pelvis_out" style="text;html=1;strokeColor=none;fillColor=none;align=center;verticalAlign=middle;spacingLeft=4;spacingRight=4;overflow=hidden;rotatable=0;points=[[0,0.5],[1,0.5]];portConstraint=eastwest;whiteSpace=wrap;" vertex="1" parent="pb-NdofNZY1ENQIVfTuN-29">
          <mxGeometry y="160" width="230" height="30" as="geometry" />
        </mxCell>
        <mxCell id="pb-NdofNZY1ENQIVfTuN-42" value="bicep_out" style="text;html=1;strokeColor=none;fillColor=none;align=center;verticalAlign=middle;spacingLeft=4;spacingRight=4;overflow=hidden;rotatable=0;points=[[0,0.5],[1,0.5]];portConstraint=eastwest;whiteSpace=wrap;" vertex="1" parent="pb-NdofNZY1ENQIVfTuN-29">
          <mxGeometry y="190" width="230" height="30" as="geometry" />
        </mxCell>
        <mxCell id="pb-NdofNZY1ENQIVfTuN-41" value="thigh_out" style="text;html=1;strokeColor=none;fillColor=none;align=center;verticalAlign=middle;spacingLeft=4;spacingRight=4;overflow=hidden;rotatable=0;points=[[0,0.5],[1,0.5]];portConstraint=eastwest;whiteSpace=wrap;" vertex="1" parent="pb-NdofNZY1ENQIVfTuN-29">
          <mxGeometry y="220" width="230" height="30" as="geometry" />
        </mxCell>
        <mxCell id="pb-NdofNZY1ENQIVfTuN-40" value="shoulder_to_wrist_out" style="text;html=1;strokeColor=none;fillColor=none;align=center;verticalAlign=middle;spacingLeft=4;spacingRight=4;overflow=hidden;rotatable=0;points=[[0,0.5],[1,0.5]];portConstraint=eastwest;whiteSpace=wrap;" vertex="1" parent="pb-NdofNZY1ENQIVfTuN-29">
          <mxGeometry y="250" width="230" height="30" as="geometry" />
        </mxCell>
        <mxCell id="pb-NdofNZY1ENQIVfTuN-39" value="leg_out" style="text;html=1;strokeColor=none;fillColor=none;align=center;verticalAlign=middle;spacingLeft=4;spacingRight=4;overflow=hidden;rotatable=0;points=[[0,0.5],[1,0.5]];portConstraint=eastwest;whiteSpace=wrap;" vertex="1" parent="pb-NdofNZY1ENQIVfTuN-29">
          <mxGeometry y="280" width="230" height="30" as="geometry" />
        </mxCell>
        <mxCell id="pb-NdofNZY1ENQIVfTuN-38" value="calf_out" style="text;html=1;strokeColor=none;fillColor=none;align=center;verticalAlign=middle;spacingLeft=4;spacingRight=4;overflow=hidden;rotatable=0;points=[[0,0.5],[1,0.5]];portConstraint=eastwest;whiteSpace=wrap;" vertex="1" parent="pb-NdofNZY1ENQIVfTuN-29">
          <mxGeometry y="310" width="230" height="30" as="geometry" />
        </mxCell>
        <mxCell id="pb-NdofNZY1ENQIVfTuN-37" value="wrist_out" style="text;html=1;strokeColor=none;fillColor=none;align=center;verticalAlign=middle;spacingLeft=4;spacingRight=4;overflow=hidden;rotatable=0;points=[[0,0.5],[1,0.5]];portConstraint=eastwest;whiteSpace=wrap;" vertex="1" parent="pb-NdofNZY1ENQIVfTuN-29">
          <mxGeometry y="340" width="230" height="30" as="geometry" />
        </mxCell>
        <mxCell id="pb-NdofNZY1ENQIVfTuN-36" value="arm_out" style="text;html=1;strokeColor=none;fillColor=none;align=center;verticalAlign=middle;spacingLeft=4;spacingRight=4;overflow=hidden;rotatable=0;points=[[0,0.5],[1,0.5]];portConstraint=eastwest;whiteSpace=wrap;" vertex="1" parent="pb-NdofNZY1ENQIVfTuN-29">
          <mxGeometry y="370" width="230" height="30" as="geometry" />
        </mxCell>
        <mxCell id="pb-NdofNZY1ENQIVfTuN-44" value="shoulder_to_shoulder_out" style="text;html=1;strokeColor=none;fillColor=none;align=center;verticalAlign=middle;spacingLeft=4;spacingRight=4;overflow=hidden;rotatable=0;points=[[0,0.5],[1,0.5]];portConstraint=eastwest;whiteSpace=wrap;" vertex="1" parent="pb-NdofNZY1ENQIVfTuN-29">
          <mxGeometry y="400" width="230" height="30" as="geometry" />
        </mxCell>
        <mxCell id="pb-NdofNZY1ENQIVfTuN-46" style="edgeStyle=orthogonalEdgeStyle;rounded=0;orthogonalLoop=1;jettySize=auto;html=1;" edge="1" parent="1" source="pb-NdofNZY1ENQIVfTuN-5" target="pb-NdofNZY1ENQIVfTuN-6">
          <mxGeometry relative="1" as="geometry" />
        </mxCell>
        <mxCell id="pb-NdofNZY1ENQIVfTuN-50" style="edgeStyle=orthogonalEdgeStyle;rounded=0;orthogonalLoop=1;jettySize=auto;html=1;" edge="1" parent="1" source="pb-NdofNZY1ENQIVfTuN-15" target="pb-NdofNZY1ENQIVfTuN-17">
          <mxGeometry relative="1" as="geometry" />
        </mxCell>
      </root>
    </mxGraphModel>
  </diagram>
</mxfile>
